<?xml version="1.0" encoding="UTF-8"?>
<svg width="285px" height="251px" viewBox="0 0 285 251" version="1.1" xmlns="http://www.w3.org/2000/svg" xmlns:xlink="http://www.w3.org/1999/xlink">
    <g id="Artboard" stroke="none" stroke-width="1" fill="none" fill-rule="evenodd">
        <g id="Group" transform="translate(2.000000, 0.000000)" fill="#F0C910">
            <path d="M265.174641,115.174853 C264.841307,115.508186 264.466308,115.674852 264.049643,115.674852 C263.632978,115.674852 263.299645,115.508186 263.049646,115.174853 L249.174679,101.299886 C248.841346,101.049887 248.67468,100.716553 248.67468,100.299888 C248.67468,99.8832233 248.841346,99.5082242 249.174679,99.174891 L254.924665,93.4249047 C256.091328,92.2582415 257.507993,91.6749089 259.174655,91.6749089 C260.841317,91.6749089 262.257982,92.2582415 263.424645,93.4249047 L270.924627,100.924887 C272.09129,102.09155 272.674623,103.508215 272.674623,105.174877 C272.674623,106.841539 272.09129,108.258203 270.924627,109.424867 L265.174641,115.174853 Z M244.174691,104.174879 C244.508024,103.841546 244.883023,103.67488 245.299688,103.67488 C245.716353,103.67488 246.049686,103.841546 246.299686,104.174879 L260.174653,118.049846 C260.507986,118.299845 260.674651,118.633179 260.674651,119.049844 C260.674651,119.466509 260.507986,119.841508 260.174653,120.174841 L227.424731,152.924763 L212.174767,155.674756 C211.174769,155.841422 210.299771,155.549757 209.549773,154.799758 C208.799775,154.04976 208.50811,153.174762 208.674775,152.174765 L211.424769,136.924801 L244.174691,104.174879 Z M224.174738,134.174808 C224.508072,134.508141 224.924737,134.674806 225.424735,134.674806 C225.924734,134.674806 226.341399,134.508141 226.674732,134.174808 L245.924687,114.924853 C246.25802,114.59152 246.424685,114.174855 246.424685,113.674856 C246.424685,113.174858 246.25802,112.758193 245.924687,112.424859 C245.591353,112.091526 245.174688,111.924861 244.67469,111.924861 C244.174691,111.924861 243.758026,112.091526 243.424693,112.424859 L224.174738,131.674814 C223.841405,132.008147 223.67474,132.424812 223.67474,132.924811 C223.67474,133.424809 223.841405,133.841474 224.174738,134.174808 Z M219.674749,144.674783 L219.674749,138.674797 L215.17476,138.674797 L213.674763,146.674778 L217.674754,150.674768 L225.674735,149.174772 L225.674735,144.674783 L219.674749,144.674783 Z" id="" transform="translate(240.651972, 123.697560) rotate(-19.000000) translate(-240.651972, -123.697560) "></path>
            <path d="M155.249935,247.749986 C154.83327,247.583321 154.520771,247.333321 154.312437,246.999988 C154.104104,246.666655 154.083272,246.291656 154.249937,245.874991 L171.249897,187.125131 C171.416563,186.708466 171.666562,186.395967 171.999895,186.187633 C172.333228,185.9793 172.708227,185.9168 173.124892,186.000134 L180.749874,188.250128 C181.166539,188.416794 181.479039,188.666793 181.687372,189.000126 C181.895705,189.33346 181.916537,189.708459 181.749872,190.125124 L164.749912,248.874984 C164.583247,249.291649 164.333247,249.604148 163.999914,249.812481 C163.666581,250.020815 163.291582,250.041647 162.874917,249.874981 L155.249935,247.749986 Z M148.624951,235.875015 C148.374951,236.208348 148.041618,236.375013 147.624953,236.375013 C147.208288,236.375013 146.833289,236.250014 146.499956,236.000014 L128.499999,219.125055 C128.166666,218.791721 128,218.416722 128,218.000057 C128,217.583392 128.166666,217.208393 128.499999,216.87506 L146.499956,200.0001 C146.833289,199.750101 147.208288,199.625101 147.624953,199.625101 C148.041618,199.625101 148.374951,199.791767 148.624951,200.1251 L153.999938,205.875086 C154.333271,206.208419 154.479103,206.583418 154.437437,207.000083 C154.395771,207.416748 154.249937,207.750082 153.999938,208.000081 L142.624965,218.000057 L153.999938,228.000033 C154.249937,228.250033 154.395771,228.583366 154.437437,229.000031 C154.479103,229.416696 154.333271,229.791695 153.999938,230.125028 L148.624951,235.875015 Z M189.499853,236.000014 C189.16652,236.250014 188.791521,236.375013 188.374856,236.375013 C187.958191,236.375013 187.624858,236.208348 187.374858,235.875015 L181.999871,230.125028 C181.666538,229.791695 181.520706,229.416696 181.562372,229.000031 C181.604038,228.583366 181.749872,228.250033 181.999871,228.000033 L193.374844,218.000057 L181.999871,208.000081 C181.749872,207.750082 181.604038,207.416748 181.562372,207.000083 C181.520706,206.583418 181.666538,206.208419 181.999871,205.875086 L187.374858,200.1251 C187.708192,199.791767 188.062357,199.625101 188.437356,199.625101 C188.812355,199.625101 189.16652,199.750101 189.499853,200.0001 L207.49981,216.87506 C207.833144,217.208393 207.999809,217.583392 207.999809,218.000057 C207.999809,218.416722 207.833144,218.791721 207.49981,219.125055 L189.499853,236.000014 Z" id=""></path>
            <path d="M133.999881,89.7501174 C137.999871,92.5834446 141.16653,96.229268 143.499858,100.687591 C145.833187,105.145915 146.99985,109.916735 146.99985,115.000057 C146.99985,120.583378 145.604019,125.750032 142.81236,130.50002 C140.0207,135.250009 136.270709,139.020834 131.562387,141.812493 C126.854064,144.604153 121.68741,145.999983 116.062424,145.999983 C110.437437,145.999983 105.249949,144.604153 100.499961,141.812493 C95.749972,139.020834 91.979147,135.270843 89.1874876,130.56252 C86.3958283,125.854197 84.9999976,120.66671 84.9999976,115.000057 C84.9999976,109.916735 86.1666609,105.166747 88.4999893,100.750091 C90.8333177,96.3334357 93.9999762,92.6667765 97.9999666,89.7501174 C98.7499648,89.2501186 99.5624629,89.104285 100.437461,89.3126185 C101.312459,89.5209519 101.958291,90.0001168 102.374956,90.750115 L104.374951,94.2501067 C104.708285,94.9167711 104.791616,95.6251034 104.624951,96.3751016 C104.458285,97.1250998 104.083286,97.7084324 103.499954,98.1250975 C100.833294,100.125093 98.7499648,102.583421 97.2499684,105.50008 C95.749972,108.416739 94.9999738,111.583399 94.9999738,115.000057 C94.9999738,118.750048 95.9374715,122.25004 97.8124671,125.500032 C99.6874626,128.750024 102.229123,131.312518 105.437449,133.187514 C108.645775,135.062509 112.145767,136.000007 115.937424,136.000007 C119.729081,136.000007 123.249906,135.062509 126.499899,133.187514 C129.749891,131.312518 132.312385,128.750024 134.18738,125.500032 C136.062376,122.25004 136.999874,118.708382 136.999874,114.875058 C136.999874,111.625065 136.249875,108.520907 134.749879,105.56258 C133.249883,102.604253 131.166554,100.125093 128.499894,98.1250975 C127.916561,97.7084324 127.541562,97.1250998 127.374897,96.3751016 C127.208231,95.6251034 127.291563,94.9167711 127.624896,94.2501067 L129.624891,90.750115 C130.041556,90.0001168 130.687389,89.5209519 131.562387,89.3126185 C132.437385,89.104285 133.249883,89.2501186 133.999881,89.7501174 Z M120.999912,116.000055 C120.999912,116.833387 120.708246,117.541717 120.124914,118.12505 C119.541581,118.708382 118.833251,119.000048 117.999919,119.000048 L113.999928,119.000048 C113.166596,119.000048 112.458266,118.708382 111.874934,118.12505 C111.291601,117.541717 110.999936,116.833387 110.999936,116.000055 L110.999936,86.0001264 C110.999936,85.1667944 111.291601,84.458464 111.874934,83.8751314 C112.458266,83.2917988 113.166596,83.0001335 113.999928,83.0001335 L117.999919,83.0001335 C118.833251,83.0001335 119.541581,83.2917988 120.124914,83.8751314 C120.708246,84.458464 120.999912,85.1667944 120.999912,86.0001264 L120.999912,116.000055 Z" id=""></path>
            <path d="M64.2328961,204.28389 C65.3995593,206.200551 65.8162263,208.22138 65.4828931,210.346375 C65.1495599,212.47137 64.1703962,214.263032 62.5454001,215.721362 C60.920404,217.179693 58.9829086,217.908857 56.732914,217.908857 L18.4830052,217.908857 C16.2330105,217.908857 14.2955152,217.200525 12.670519,215.783862 C11.0455229,214.3672 10.0663592,212.575536 9.73302603,210.408875 C9.39969285,208.242214 9.8163598,206.200551 10.983023,204.28389 L25.6079882,180.783946 L25.6079882,161.908991 L24.6079906,161.908991 C23.7746586,161.908991 23.0663282,161.617325 22.4829956,161.033993 C21.8996631,160.45066 21.6079977,159.74233 21.6079977,158.908998 L21.6079977,156.909003 C21.6079977,156.075671 21.8996631,155.36734 22.4829956,154.784008 C23.0663282,154.200675 23.7746586,153.90901 24.6079906,153.90901 L50.6079286,153.90901 C51.4412606,153.90901 52.1495909,154.200675 52.7329235,154.784008 C53.3162561,155.36734 53.6079214,156.075671 53.6079214,156.909003 L53.6079214,158.908998 C53.6079214,159.74233 53.3162561,160.45066 52.7329235,161.033993 C52.1495909,161.617325 51.4412606,161.908991 50.6079286,161.908991 L49.607931,161.908991 L49.607931,180.783946 L64.2328961,204.28389 Z M26.8579852,193.908914 L48.3579339,193.908914 L42.3579482,184.158938 C41.8579494,183.492273 41.60795,182.742275 41.60795,181.908943 L41.60795,161.908991 L33.6079691,161.908991 L33.6079691,181.908943 C33.6079691,182.742275 33.3579697,183.492273 32.8579709,184.158938 L26.8579852,193.908914 Z" id="" transform="translate(37.607960, 185.908933) rotate(21.000000) translate(-37.607960, -185.908933) "></path>
            <path d="M223.624867,42.3750468 L228.874855,45.5000393 C229.208188,45.666705 229.437354,45.9167044 229.562353,46.2500376 C229.687353,46.5833707 229.708187,46.916702 229.624853,47.2500352 C228.20819,51.6666907 225.916528,55.5833493 222.749869,59.0000072 C222.49987,59.2500066 222.208205,59.4166722 221.874872,59.500006 C221.541538,59.5833397 221.208207,59.5416719 220.874874,59.3750063 L215.624886,56.2500137 C213.374892,58.1666752 210.833232,59.6250057 207.999905,60.6250033 L207.999905,66.7499887 C207.999905,67.0833218 207.895739,67.3958211 207.687405,67.6874864 C207.479072,67.9791518 207.20824,68.1666513 206.874907,68.2499851 C202.291584,69.2499827 197.708263,69.2499827 193.12494,68.2499851 C192.791607,68.1666513 192.520776,67.9791518 192.312442,67.6874864 C192.104109,67.3958211 191.999943,67.0833218 191.999943,66.7499887 L191.999943,60.6250033 C189.166616,59.6250057 186.624956,58.1666752 184.374961,56.2500137 L179.124973,59.3750063 C178.79164,59.5416719 178.458309,59.5833397 178.124976,59.500006 C177.791643,59.4166722 177.499977,59.2500066 177.249978,59.0000072 C174.083319,55.5833493 171.791657,51.6666907 170.374994,47.2500352 C170.291661,46.916702 170.312494,46.5833707 170.437494,46.2500376 C170.562494,45.9167044 170.791659,45.666705 171.124993,45.5000393 L176.37498,42.3750468 C175.874981,39.4583877 175.874981,36.5417267 176.37498,33.6250677 L171.124993,30.5000751 C170.791659,30.3334095 170.562494,30.0834101 170.437494,29.7500769 C170.312494,29.4167437 170.291661,29.0834124 170.374994,28.7500793 C171.791657,24.3334238 174.083319,20.4167652 177.249978,17.0001073 C177.499977,16.7501079 177.791643,16.5834423 178.124976,16.5001085 C178.458309,16.4167747 178.79164,16.4584425 179.124973,16.6251082 L184.374961,19.7501007 C186.624956,17.8334393 189.166616,16.3751088 191.999943,15.3751112 L191.999943,9.25012577 C191.999943,8.91679259 192.104109,8.60429334 192.312442,8.312628 C192.520776,8.02096267 192.791607,7.83346311 193.12494,7.75012934 C197.708263,6.75013173 202.291584,6.75013173 206.874907,7.75012934 C207.20824,7.83346311 207.479072,8.02096267 207.687405,8.312628 C207.895739,8.60429334 207.999905,8.91679259 207.999905,9.25012577 L207.999905,15.3751112 C210.833232,16.3751088 213.374892,17.8334393 215.624886,19.7501007 L220.874874,16.6251082 C221.208207,16.4584425 221.541538,16.4167747 221.874872,16.5001085 C222.208205,16.5834423 222.49987,16.7501079 222.749869,17.0001073 C225.916528,20.4167652 228.20819,24.3334238 229.624853,28.7500793 C229.708187,29.0834124 229.687353,29.4167437 229.562353,29.7500769 C229.437354,30.0834101 229.208188,30.3334095 228.874855,30.5000751 L223.624867,33.6250677 C224.124866,36.5417267 224.124866,39.4583877 223.624867,42.3750468 Z M209.9999,38.0000572 C209.9999,35.2500638 209.020736,32.8959034 207.062407,30.9375741 C205.104078,28.9792448 202.749917,28.0000811 199.999924,28.0000811 C197.24993,28.0000811 194.89577,28.9792448 192.937441,30.9375741 C190.979111,32.8959034 189.999948,35.2500638 189.999948,38.0000572 C189.999948,40.7500507 190.979111,43.1042111 192.937441,45.0625404 C194.89577,47.0208697 197.24993,48.0000334 199.999924,48.0000334 C202.749917,48.0000334 205.104078,47.0208697 207.062407,45.0625404 C209.020736,43.1042111 209.9999,40.7500507 209.9999,38.0000572 Z" id=""></path>
            <path d="M66.9998569,22.0001049 C70.5831824,22.0001049 73.9165065,22.8959367 76.9998331,24.6875985 C80.0831597,26.4792603 82.5206539,28.9167544 84.3123157,32.0000811 C86.1039774,35.0834077 86.9998093,38.4167318 86.9998093,42.0000572 C86.9998093,45.5833826 86.1039774,48.9167068 84.3123157,52.0000334 C82.5206539,55.08336 80.0831597,57.5208542 76.9998331,59.3125159 C73.9165065,61.1041777 70.5831824,62.0000095 66.9998569,62.0000095 C64.2498635,62.0000095 61.6457037,61.4791768 59.1873756,60.4375133 C56.7290475,59.3958497 54.5832205,57.9166853 52.7498909,56.0000238 L41.2499183,56.0000238 C39.4165887,57.9166853 37.2707618,59.3958497 34.8124337,60.4375133 C32.3541056,61.4791768 29.7499458,62.0000095 26.9999523,62.0000095 C23.4166269,62.0000095 20.0833028,61.1041777 16.9999762,59.3125159 C13.9166495,57.5208542 11.4791554,55.08336 9.68749359,52.0000334 C7.89583183,48.9167068 7,45.5833826 7,42.0000572 C7,38.4167318 7.89583183,35.0834077 9.68749359,32.0000811 C11.4791554,28.9167544 13.9166495,26.4792603 16.9999762,24.6875985 C20.0833028,22.8959367 23.4166269,22.0001049 26.9999523,22.0001049 L66.9998569,22.0001049 Z M38.9999237,44.5000513 L38.9999237,39.5000632 C38.9999237,39.0833981 38.8540901,38.729231 38.5624247,38.4375657 C38.2707594,38.1459004 37.9165923,38.0000668 37.4999273,38.0000668 L30.9999428,38.0000668 L30.9999428,31.5000823 C30.9999428,31.0834172 30.8541092,30.7292501 30.5624438,30.4375848 C30.2707785,30.1459195 29.9166114,30.0000858 29.4999464,30.0000858 L24.4999583,30.0000858 C24.0832932,30.0000858 23.7291261,30.1459195 23.4374608,30.4375848 C23.1457955,30.7292501 22.9999619,31.0834172 22.9999619,31.5000823 L22.9999619,38.0000668 L16.4999774,38.0000668 C16.0833123,38.0000668 15.7291452,38.1459004 15.4374799,38.4375657 C15.1458145,38.729231 14.9999809,39.0833981 14.9999809,39.5000632 L14.9999809,44.5000513 C14.9999809,44.9167163 15.1458145,45.2708834 15.4374799,45.5625487 C15.7291452,45.8542141 16.0833123,46.0000477 16.4999774,46.0000477 L22.9999619,46.0000477 L22.9999619,52.5000322 C22.9999619,52.9166972 23.1457955,53.2708643 23.4374608,53.5625297 C23.7291261,53.854195 24.0832932,54.0000286 24.4999583,54.0000286 L29.4999464,54.0000286 C29.9166114,54.0000286 30.2707785,53.854195 30.5624438,53.5625297 C30.8541092,53.2708643 30.9999428,52.9166972 30.9999428,52.5000322 L30.9999428,46.0000477 L37.4999273,46.0000477 C37.9165923,46.0000477 38.2707594,45.8542141 38.5624247,45.5625487 C38.8540901,45.2708834 38.9999237,44.9167163 38.9999237,44.5000513 Z M61.9998689,53.000031 C63.6665309,53.000031 65.0831955,52.4166984 66.2498587,51.2500352 C67.416522,50.0833719 67.9998546,48.6667074 67.9998546,47.0000453 C67.9998546,45.3333832 67.416522,43.9167187 66.2498587,42.7500554 C65.0831955,41.5833922 63.6665309,41.0000596 61.9998689,41.0000596 C60.3332068,41.0000596 58.9165423,41.5833922 57.749879,42.7500554 C56.5832158,43.9167187 55.9998832,45.3333832 55.9998832,47.0000453 C55.9998832,48.6667074 56.5832158,50.0833719 57.749879,51.2500352 C58.9165423,52.4166984 60.3332068,53.000031 61.9998689,53.000031 Z M71.999845,43.0000548 C73.6665071,43.0000548 75.0831716,42.4167223 76.2498349,41.250059 C77.4164981,40.0833958 77.9998307,38.6667312 77.9998307,37.0000691 C77.9998307,35.3334071 77.4164981,33.9167425 76.2498349,32.7500793 C75.0831716,31.583416 73.6665071,31.0000834 71.999845,31.0000834 C70.333183,31.0000834 68.9165184,31.583416 67.7498552,32.7500793 C66.5831919,33.9167425 65.9998593,35.3334071 65.9998593,37.0000691 C65.9998593,38.6667312 66.5831919,40.0833958 67.7498552,41.250059 C68.9165184,42.4167223 70.333183,43.0000548 71.999845,43.0000548 Z" id="" transform="translate(46.999905, 42.000057) rotate(-15.000000) translate(-46.999905, -42.000057) "></path>
        </g>
    </g>
</svg>