<?xml version="1.0" encoding="UTF-8"?>
<svg width="149px" height="129px" viewBox="0 0 149 129" version="1.1" xmlns="http://www.w3.org/2000/svg" xmlns:xlink="http://www.w3.org/1999/xlink">
    <!-- Generator: Sketch 51.3 (57544) - http://www.bohemiancoding.com/sketch -->
    <title>Artboard</title>
    <desc>Created with Sketch.</desc>
    <defs></defs>
    <g id="Artboard" stroke="none" stroke-width="1" fill="none" fill-rule="evenodd">
        <g id="Group" transform="translate(4.000000, 13.000000)" fill="#2BBE69">
            <path d="M135.564419,47.2273262 C135.397752,47.3939928 135.210253,47.4773256 135.00192,47.4773256 C134.793588,47.4773256 134.626921,47.3939928 134.501921,47.2273262 L127.564438,40.2898428 C127.397771,40.1648431 127.314439,39.9981765 127.314439,39.789844 C127.314439,39.5815114 127.397771,39.3940119 127.564438,39.2273453 L130.439431,36.3523522 C131.022763,35.7690205 131.731095,35.4773542 132.564426,35.4773542 C133.397757,35.4773542 134.106089,35.7690205 134.689421,36.3523522 L138.439412,40.1023432 C139.022744,40.6856748 139.31441,41.3940071 139.31441,42.2273381 C139.31441,43.0606692 139.022744,43.7690015 138.439412,44.3523331 L135.564419,47.2273262 Z M125.064444,41.7273393 C125.231111,41.5606728 125.41861,41.4773399 125.626943,41.4773399 C125.835275,41.4773399 126.001942,41.5606728 126.126941,41.7273393 L133.064425,48.6648228 C133.231091,48.7898225 133.314424,48.9564891 133.314424,49.1648216 C133.314424,49.3731541 133.231091,49.5606537 133.064425,49.7273203 L116.689464,66.1022812 L109.064482,67.4772779 C108.564483,67.5606108 108.126984,67.4147781 107.751985,67.039779 C107.376986,66.6647799 107.231153,66.2272809 107.314486,65.7272821 L108.689483,58.1023003 L125.064444,41.7273393 Z M115.064468,56.7273036 C115.231134,56.8939702 115.439467,56.977303 115.689466,56.977303 C115.939466,56.977303 116.147798,56.8939702 116.314465,56.7273036 L125.939442,47.1023265 C126.106108,46.9356599 126.189441,46.7273274 126.189441,46.477328 C126.189441,46.2273286 126.106108,46.0189961 125.939442,45.8523295 C125.772775,45.6856629 125.564443,45.6023301 125.314443,45.6023301 C125.064444,45.6023301 124.856111,45.6856629 124.689445,45.8523295 L115.064468,55.4773066 C114.897801,55.6439731 114.814468,55.8523057 114.814468,56.1023051 C114.814468,56.3523045 114.897801,56.560637 115.064468,56.7273036 Z M112.814473,61.9772911 L112.814473,58.9772982 L110.564478,58.9772982 L109.81448,62.9772887 L111.814476,64.9772839 L115.814466,64.2272857 L115.814466,61.9772911 L112.814473,61.9772911 Z" id="" transform="translate(123.303085, 51.488680) rotate(-19.000000) translate(-123.303085, -51.488680) "></path>
            <path d="M80.6249675,113.874993 C80.416635,113.79166 80.2603854,113.666661 80.1562186,113.499994 C80.0520519,113.333327 80.0416359,113.145828 80.1249687,112.937495 L88.6249484,83.5625654 C88.7082813,83.3542329 88.833281,83.1979833 88.9999475,83.0938165 C89.1666141,82.9896498 89.3541137,82.9583999 89.5624462,83.0000668 L93.3749371,84.1250641 C93.5832696,84.2083969 93.7395193,84.3333966 93.843686,84.5000632 C93.9478527,84.6667298 93.9582687,84.8542293 93.8749359,85.0625618 L85.3749562,114.437492 C85.2916234,114.645824 85.1666237,114.802074 84.9999571,114.906241 C84.8332905,115.010407 84.6457909,115.020823 84.4374584,114.937491 L80.6249675,113.874993 Z M77.3124754,107.937507 C77.1874757,108.104174 77.0208091,108.187507 76.8124766,108.187507 C76.6041441,108.187507 76.4166445,108.125007 76.2499779,108.000007 L67.2499994,99.5625273 C67.0833328,99.3958607 67,99.2083611 67,99.0000286 C67,98.7916961 67.0833328,98.6041965 67.2499994,98.43753 L76.2499779,90.0000501 C76.4166445,89.8750504 76.6041441,89.8125505 76.8124766,89.8125505 C77.0208091,89.8125505 77.1874757,89.8958833 77.3124754,90.0625499 L79.999969,92.9375431 C80.1666356,93.1042097 80.2395514,93.2917092 80.2187185,93.5000417 C80.1978855,93.7083742 80.1249687,93.8750408 79.999969,94.0000405 L74.3124826,99.0000286 L79.999969,104.000017 C80.1249687,104.125016 80.1978855,104.291683 80.2187185,104.500015 C80.2395514,104.708348 80.1666356,104.895848 79.999969,105.062514 L77.3124754,107.937507 Z M97.7499267,108.000007 C97.5832601,108.125007 97.3957605,108.187507 97.187428,108.187507 C96.9790955,108.187507 96.8124289,108.104174 96.6874292,107.937507 L93.9999356,105.062514 C93.833269,104.895848 93.7603532,104.708348 93.7811861,104.500015 C93.8020191,104.291683 93.8749359,104.125016 93.9999356,104.000017 L99.6874221,99.0000286 L93.9999356,94.0000405 C93.8749359,93.8750408 93.8020191,93.7083742 93.7811861,93.5000417 C93.7603532,93.2917092 93.833269,93.1042097 93.9999356,92.9375431 L96.6874292,90.0625499 C96.8540958,89.8958833 97.0311784,89.8125505 97.218678,89.8125505 C97.4061775,89.8125505 97.5832601,89.8750504 97.7499267,90.0000501 L106.749905,98.43753 C106.916572,98.6041965 106.999905,98.7916961 106.999905,99.0000286 C106.999905,99.2083611 106.916572,99.3958607 106.749905,99.5625273 L97.7499267,108.000007 Z" id=""></path>
            <path d="M67.9999404,34.8750587 C69.9999356,36.2917223 71.5832649,38.114634 72.7499291,40.3437957 C73.9165933,42.5729573 74.4999249,44.9583677 74.4999249,47.5000286 C74.4999249,50.2916889 73.8020096,52.8750158 72.4061799,55.2500101 C71.0103502,57.6250045 69.1353547,59.510417 66.7811933,60.9062466 C64.4270319,62.3020763 61.8437051,62.9999917 59.0312118,62.9999917 C56.2187185,62.9999917 53.6249747,62.3020763 51.2499803,60.9062466 C48.874986,59.510417 46.9895735,57.6354214 45.5937438,55.2812601 C44.1979141,52.9270987 43.4999988,50.3333549 43.4999988,47.5000286 C43.4999988,44.9583677 44.0833304,42.5833733 45.2499946,40.3750456 C46.4166588,38.1667178 47.9999881,36.3333882 49.9999833,34.8750587 C50.3749824,34.6250593 50.7812314,34.5521425 51.2187304,34.6563092 C51.6562294,34.760476 51.9791456,35.0000584 52.1874781,35.3750575 L53.1874757,37.1250533 C53.3541423,37.4583856 53.3958082,37.8125517 53.3124754,38.1875508 C53.2291426,38.5625499 53.041643,38.8542162 52.7499768,39.0625487 C51.4166469,40.0625463 50.3749824,41.2917104 49.6249842,42.7500399 C48.874986,44.2083695 48.4999869,45.7916997 48.4999869,47.5000286 C48.4999869,49.3750241 48.9687358,51.12502 49.9062335,52.7500161 C50.8437313,54.3750122 52.1145613,55.6562592 53.7187244,56.5937569 C55.3228876,57.5312547 57.0728834,58.0000036 58.9687119,58.0000036 C60.8645404,58.0000036 62.6249532,57.5312547 64.2499493,56.5937569 C65.8749455,55.6562592 67.1561924,54.3750122 68.0936902,52.7500161 C69.0311879,51.12502 69.4999368,49.3541912 69.4999368,47.4375288 C69.4999368,45.8125326 69.1249377,44.2604533 68.3749395,42.7812899 C67.6249413,41.3021264 66.5832768,40.0625463 65.249947,39.0625487 C64.9582807,38.8542162 64.7707811,38.5625499 64.6874483,38.1875508 C64.6041155,37.8125517 64.6457814,37.4583856 64.812448,37.1250533 L65.8124456,35.3750575 C66.0207781,35.0000584 66.3436943,34.760476 66.7811933,34.6563092 C67.2186923,34.5521425 67.6249413,34.6250593 67.9999404,34.8750587 Z M61.4999559,48.0000274 C61.4999559,48.4166934 61.3541232,48.7708586 61.0624569,49.0625249 C60.7707906,49.3541912 60.4166255,49.5000238 59.9999595,49.5000238 L57.9999642,49.5000238 C57.5832982,49.5000238 57.2291331,49.3541912 56.9374668,49.0625249 C56.6458005,48.7708586 56.4999678,48.4166934 56.4999678,48.0000274 L56.4999678,33.0000632 C56.4999678,32.5833972 56.6458005,32.229232 56.9374668,31.9375657 C57.2291331,31.6458994 57.5832982,31.5000668 57.9999642,31.5000668 L59.9999595,31.5000668 C60.4166255,31.5000668 60.7707906,31.6458994 61.0624569,31.9375657 C61.3541232,32.229232 61.4999559,32.5833972 61.4999559,33.0000632 L61.4999559,48.0000274 Z" id=""></path>
            <path d="M29.8893887,91.7492053 C30.4727204,92.707536 30.6810538,93.7179506 30.5143873,94.780448 C30.3477207,95.8429455 29.8581388,96.7387764 29.0456408,97.4679416 C28.2331427,98.1971069 27.264395,98.561689 26.1393977,98.561689 L7.01444329,98.561689 C5.88944597,98.561689 4.92069828,98.2075229 4.10820022,97.4991916 C3.29570215,96.7908602 2.8061203,95.8950284 2.63945372,94.811698 C2.47278713,93.7283675 2.6811206,92.707536 3.26445223,91.7492053 L10.5769348,79.9992333 L10.5769348,70.5617558 L10.076936,70.5617558 C9.66026999,70.5617558 9.30610481,70.4159231 9.01443852,70.1242568 C8.72277223,69.8325905 8.57693956,69.4784254 8.57693956,69.0617594 L8.57693956,68.0617618 C8.57693956,67.6450958 8.72277223,67.2909306 9.01443852,66.9992643 C9.30610481,66.707598 9.66026999,66.5617653 10.076936,66.5617653 L23.076905,66.5617653 C23.493571,66.5617653 23.8477362,66.707598 24.1394025,66.9992643 C24.4310687,67.2909306 24.5769014,67.6450958 24.5769014,68.0617618 L24.5769014,69.0617594 C24.5769014,69.4784254 24.4310687,69.8325905 24.1394025,70.1242568 C23.8477362,70.4159231 23.493571,70.5617558 23.076905,70.5617558 L22.5769062,70.5617558 L22.5769062,79.9992333 L29.8893887,91.7492053 Z M11.2019333,86.5617176 L21.9519077,86.5617176 L18.9519148,81.6867293 C18.7019154,81.353397 18.5769157,80.9783979 18.5769157,80.5617319 L18.5769157,70.5617558 L14.5769253,70.5617558 L14.5769253,80.5617319 C14.5769253,80.9783979 14.4519256,81.353397 14.2019261,81.6867293 L11.2019333,86.5617176 Z" id="" transform="translate(16.576920, 82.561727) rotate(21.000000) translate(-16.576920, -82.561727) "></path>
            <path d="M112.812434,11.1875234 L115.437427,12.7500197 C115.604094,12.8333525 115.718677,12.9583522 115.781177,13.1250188 C115.843676,13.2916854 115.854093,13.458351 115.812427,13.6250176 C115.104095,15.8333453 113.958264,17.7916746 112.374935,19.5000036 C112.249935,19.6250033 112.104102,19.7083361 111.937436,19.750003 C111.770769,19.7916699 111.604104,19.7708359 111.437437,19.6875031 L108.812443,18.1250069 C107.687446,19.0833376 106.416616,19.8125028 104.999952,20.3125016 L104.999952,23.3749943 C104.999952,23.5416609 104.947869,23.6979106 104.843703,23.8437432 C104.739536,23.9895759 104.60412,24.0833257 104.437454,24.1249925 C102.145792,24.6249914 99.8541316,24.6249914 97.56247,24.1249925 C97.3958035,24.0833257 97.2603878,23.9895759 97.156221,23.8437432 C97.0520543,23.6979106 96.9999714,23.5416609 96.9999714,23.3749943 L96.9999714,20.3125016 C95.5833078,19.8125028 94.3124778,19.0833376 93.1874805,18.1250069 L90.5624867,19.6875031 C90.3958202,19.7708359 90.2291545,19.7916699 90.0624879,19.750003 C89.8958213,19.7083361 89.7499887,19.6250033 89.624989,19.5000036 C88.0416597,17.7916746 86.8958285,15.8333453 86.1874972,13.6250176 C86.1458303,13.458351 86.1562472,13.2916854 86.2187471,13.1250188 C86.2812469,12.9583522 86.3958297,12.8333525 86.5624963,12.7500197 L89.18749,11.1875234 C88.9374906,9.72919386 88.9374906,8.27086336 89.18749,6.81253383 L86.5624963,5.25003755 C86.3958297,5.16670473 86.2812469,5.04170503 86.2187471,4.87503844 C86.1562472,4.70837186 86.1458303,4.54170622 86.1874972,4.37503964 C86.8958285,2.16671189 88.0416597,0.208382587 89.624989,-1.49994636 C89.7499887,-1.62494606 89.8958213,-1.70827887 90.0624879,-1.74994576 C90.2291545,-1.79161264 90.3958202,-1.77077873 90.5624867,-1.68744591 L93.1874805,-0.124949634 C94.3124778,-1.08328036 95.5833078,-1.81244561 96.9999714,-2.31244442 L96.9999714,-5.37493712 C96.9999714,-5.5416037 97.0520543,-5.69785333 97.156221,-5.843686 C97.2603878,-5.98951867 97.3958035,-6.08326844 97.56247,-6.12493533 C99.8541316,-6.62493414 102.145792,-6.62493414 104.437454,-6.12493533 C104.60412,-6.08326844 104.739536,-5.98951867 104.843703,-5.843686 C104.947869,-5.69785333 104.999952,-5.5416037 104.999952,-5.37493712 L104.999952,-2.31244442 C106.416616,-1.81244561 107.687446,-1.08328036 108.812443,-0.124949634 L111.437437,-1.68744591 C111.604104,-1.77077873 111.770769,-1.79161264 111.937436,-1.74994576 C112.104102,-1.70827887 112.249935,-1.62494606 112.374935,-1.49994636 C113.958264,0.208382587 115.104095,2.16671189 115.812427,4.37503964 C115.854093,4.54170622 115.843676,4.70837186 115.781177,4.87503844 C115.718677,5.04170503 115.604094,5.16670473 115.437427,5.25003755 L112.812434,6.81253383 C113.062433,8.27086336 113.062433,9.72919386 112.812434,11.1875234 Z M105.99995,9.00002861 C105.99995,7.62503189 105.510368,6.44795168 104.531203,5.46878703 C103.552039,4.48962238 102.374959,4.00004053 100.999962,4.00004053 C99.6249651,4.00004053 98.4478849,4.48962238 97.4687203,5.46878703 C96.4895556,6.44795168 95.9999738,7.62503189 95.9999738,9.00002861 C95.9999738,10.3750253 96.4895556,11.5521055 97.4687203,12.5312702 C98.4478849,13.5104348 99.6249651,14.0000167 100.999962,14.0000167 C102.374959,14.0000167 103.552039,13.5104348 104.531203,12.5312702 C105.510368,11.5521055 105.99995,10.3750253 105.99995,9.00002861 Z" id=""></path>
            <path d="M38.0528427,0.79560741 C39.8445055,0.79560741 41.5111675,1.24352333 43.0528308,2.13935421 C44.5944941,3.03518509 45.8132412,4.25393218 46.7090721,5.79559549 C47.604903,7.3372588 48.0528189,9.00392086 48.0528189,10.7955836 C48.0528189,12.5872463 47.604903,14.2539083 46.7090721,15.7955716 C45.8132412,17.337235 44.5944941,18.5559821 43.0528308,19.4518129 C41.5111675,20.3476438 39.8445055,20.7955597 38.0528427,20.7955597 C36.677846,20.7955597 35.3757661,20.5351434 34.1466021,20.0143116 C32.917438,19.4934798 31.8445245,18.7538976 30.9278597,17.7955669 L25.1778734,17.7955669 C24.2612086,18.7538976 23.1882952,19.4934798 21.9591311,20.0143116 C20.7299671,20.5351434 19.4278872,20.7955597 18.0528904,20.7955597 C16.2612277,20.7955597 14.5945657,20.3476438 13.0529023,19.4518129 C11.511239,18.5559821 10.2924919,17.337235 9.39666107,15.7955716 C8.50083019,14.2539083 8.05291427,12.5872463 8.05291427,10.7955836 C8.05291427,9.00392086 8.50083019,7.3372588 9.39666107,5.79559549 C10.2924919,4.25393218 11.511239,3.03518509 13.0529023,2.13935421 C14.5945657,1.24352333 16.2612277,0.79560741 18.0528904,0.79560741 L38.0528427,0.79560741 Z M24.0528761,12.0455806 L24.0528761,9.54558655 C24.0528761,9.33725403 23.9799593,9.16017048 23.8341266,9.01433781 C23.688294,8.86850515 23.5112104,8.79558834 23.3028779,8.79558834 L20.0528857,8.79558834 L20.0528857,5.54559608 C20.0528857,5.33726357 19.9799688,5.16018002 19.8341362,5.01434735 C19.6883035,4.86851468 19.51122,4.79559787 19.3028874,4.79559787 L16.8028934,4.79559787 C16.5945609,4.79559787 16.4174773,4.86851468 16.2716447,5.01434735 C16.125812,5.16018002 16.0528952,5.33726357 16.0528952,5.54559608 L16.0528952,8.79558834 L12.8029029,8.79558834 C12.5945704,8.79558834 12.4174869,8.86850515 12.2716542,9.01433781 C12.1258215,9.16017048 12.0529047,9.33725403 12.0529047,9.54558655 L12.0529047,12.0455806 C12.0529047,12.2539131 12.1258215,12.4309967 12.2716542,12.5768293 C12.4174869,12.722662 12.5945704,12.7955788 12.8029029,12.7955788 L16.0528952,12.7955788 L16.0528952,16.0455711 C16.0528952,16.2539036 16.125812,16.4309871 16.2716447,16.5768198 C16.4174773,16.7226525 16.5945609,16.7955693 16.8028934,16.7955693 L19.3028874,16.7955693 C19.51122,16.7955693 19.6883035,16.7226525 19.8341362,16.5768198 C19.9799688,16.4309871 20.0528857,16.2539036 20.0528857,16.0455711 L20.0528857,12.7955788 L23.3028779,12.7955788 C23.5112104,12.7955788 23.688294,12.722662 23.8341266,12.5768293 C23.9799593,12.4309967 24.0528761,12.2539131 24.0528761,12.0455806 Z M35.5528487,16.2955705 C36.3861797,16.2955705 37.094512,16.0039042 37.6778436,15.4205725 C38.2611753,14.8372409 38.5528416,14.1289086 38.5528416,13.2955776 C38.5528416,12.4622466 38.2611753,11.7539143 37.6778436,11.1705827 C37.094512,10.587251 36.3861797,10.2955848 35.5528487,10.2955848 C34.7195177,10.2955848 34.0111854,10.587251 33.4278538,11.1705827 C32.8445221,11.7539143 32.5528559,12.4622466 32.5528559,13.2955776 C32.5528559,14.1289086 32.8445221,14.8372409 33.4278538,15.4205725 C34.0111854,16.0039042 34.7195177,16.2955705 35.5528487,16.2955705 Z M40.5528368,11.2955824 C41.3861678,11.2955824 42.0945001,11.0039161 42.6778317,10.4205845 C43.2611633,9.83725284 43.5528296,9.12892056 43.5528296,8.29558953 C43.5528296,7.4622585 43.2611633,6.75392622 42.6778317,6.17059459 C42.0945001,5.58726297 41.3861678,5.29559668 40.5528368,5.29559668 C39.7195058,5.29559668 39.0111735,5.58726297 38.4278419,6.17059459 C37.8445102,6.75392622 37.5528439,7.4622585 37.5528439,8.29558953 C37.5528439,9.12892056 37.8445102,9.83725284 38.4278419,10.4205845 C39.0111735,11.0039161 39.7195058,11.2955824 40.5528368,11.2955824 Z" id="" transform="translate(28.052867, 10.795584) rotate(-15.000000) translate(-28.052867, -10.795584) "></path>
        </g>
    </g>
</svg>